<svg width="35" height="35" viewBox="0 0 35 35" fill="none" xmlns="http://www.w3.org/2000/svg">
<path fill-rule="evenodd" clip-rule="evenodd" d="M14.293 5.02827C14.8485 4.49278 15.5386 4.10553 16.2958 3.90441C17.053 3.7033 17.8514 3.69521 18.6129 3.88094C19.3743 4.06667 20.0727 4.43986 20.6398 4.96398C21.2068 5.48811 21.6231 6.14522 21.8478 6.87103H13.1522C13.368 6.17497 13.76 5.54167 14.293 5.02827ZM9.17519 6.87103C9.48551 4.95662 10.4949 3.21216 12.0214 1.95227C13.5478 0.692382 15.4909 0 17.5 0C19.5091 0 21.4522 0.692382 22.9786 1.95227C24.5051 3.21216 25.5145 4.95662 25.8248 6.87103H33.0556C33.5713 6.87103 34.0658 7.0686 34.4305 7.42028C34.7951 7.77196 35 8.24895 35 8.7463C35 9.24365 34.7951 9.72063 34.4305 10.0723C34.0658 10.424 33.5713 10.6216 33.0556 10.6216H30.463V31.2495C30.463 32.2442 30.0532 33.1981 29.3239 33.9015C28.5946 34.6049 27.6055 35 26.5741 35H8.42593C7.39453 35 6.40537 34.6049 5.67607 33.9015C4.94676 33.1981 4.53704 32.2442 4.53704 31.2495V10.6216H1.94444C1.6891 10.6216 1.43625 10.5731 1.20034 10.4788C0.964427 10.3846 0.750073 10.2464 0.569515 10.0723C0.388956 9.89817 0.24573 9.69145 0.148012 9.46393C0.0502945 9.23641 0 8.99256 0 8.7463C0 8.50003 0.0502945 8.25618 0.148012 8.02866C0.24573 7.80115 0.388956 7.59442 0.569515 7.42028C0.750073 7.24615 0.964427 7.10802 1.20034 7.01378C1.43625 6.91954 1.6891 6.87103 1.94444 6.87103H9.17519ZM12.3148 14.6871C13.2093 14.6871 13.9352 15.3872 13.9352 16.2499V26.2563C13.9352 26.6707 13.7645 27.0682 13.4606 27.3613C13.1567 27.6543 12.7446 27.819 12.3148 27.819C11.8851 27.819 11.4729 27.6543 11.169 27.3613C10.8652 27.0682 10.6944 26.6707 10.6944 26.2563V16.2499C10.6944 15.3872 11.4204 14.6871 12.3148 14.6871ZM24.3056 16.2499C24.3056 15.8354 24.1348 15.4379 23.831 15.1448C23.5271 14.8518 23.1149 14.6871 22.6852 14.6871C22.2554 14.6871 21.8433 14.8518 21.5394 15.1448C21.2355 15.4379 21.0648 15.8354 21.0648 16.2499V26.2563C21.0648 26.6707 21.2355 27.0682 21.5394 27.3613C21.8433 27.6543 22.2554 27.819 22.6852 27.819C23.1149 27.819 23.5271 27.6543 23.831 27.3613C24.1348 27.0682 24.3056 26.6707 24.3056 26.2563V16.2499Z" fill="#432818"/>
</svg>
